<svg viewBox="0 0 717 1086" xmlns="http://www.w3.org/2000/svg"><path d="M358 193c198 0 359 161 359 359S556 910 358 910 0 750 0 552s160-359 358-359zm0 680c177 0 322-144 322-321S535 230 358 230 37 375 37 552s144 321 321 321zm104-482c-16-39-55-69-105-69-40 0-79 27-93 52-79-36-161 28-161 103 0 52 31 87 75 109-5 45-13 97-18 141-2 15-6 33 4 45 25 6 52 3 80 3h244c17-8 14-29 16-43 5-45 12-95 18-138 73 2 123-46 123-114 0-89-100-147-183-89zm-29 29c0 9-6 11-6 18 9 6 20 14 32 18 10-30 44-57 85-51 40 5 66 46 63 85-3 33-34 66-82 67 3-20 4-41-15-42-20 0-22 31-25 58-4 29-5 57-8 74H279c-28 0-57-4-53 24 3 16 29 13 53 13 62 0 135-2 193 1-2 18-4 37-7 53H197c8-60 15-124 23-184-45-2-84-36-79-87 8-69 106-88 141-32 2-38 30-71 65-75 41-5 76 21 86 60z"/></svg>